<svg width="17" height="17" viewBox="0 0 17 17" fill="none" xmlns="http://www.w3.org/2000/svg">
<path d="M16.4117 3.98649C15.6452 2.83085 14.3167 2.17766 12.9371 2.32839H12.7838C11.9152 2.42888 11.0465 2.07717 10.4845 1.42398L10.3823 1.27324C9.46255 0.218092 8.08294 -0.234114 6.70333 0.117602C5.32371 0.469319 4.30178 1.52447 4.0463 2.88109L3.9952 3.03183C3.79081 3.88599 3.22875 4.53918 2.4112 4.8909L2.25791 4.94114C0.980495 5.49384 0.11185 6.64948 0.00965684 8.0061C-0.0925366 9.36272 0.622817 10.6691 1.84914 11.3725L2.00243 11.473C2.76888 11.9252 3.22875 12.6789 3.33094 13.5331V13.6838C3.43314 15.0404 4.30178 16.2463 5.6303 16.7488C6.09017 16.8995 6.55003 17 7.0099 17C7.87855 17 8.7472 16.6985 9.46255 16.0956L9.56474 15.9951C10.229 15.4424 11.0976 15.1912 11.9663 15.3922L12.1196 15.4424C13.4992 15.7439 14.8788 15.2917 15.7985 14.2365C16.7183 13.1814 16.9227 11.7243 16.3095 10.4681C15.9007 9.61395 16.0029 8.5588 16.5139 7.75488C17.1782 6.64948 17.1782 5.19237 16.4117 3.98649ZM15.5942 7.30267C14.9299 8.40807 14.8277 9.76469 15.3387 10.9203C15.7474 11.8247 15.5942 12.8799 14.981 13.6336C14.3167 14.3872 13.3459 14.739 12.324 14.4877L12.1196 14.4375C10.9444 14.136 9.71803 14.4877 8.79829 15.2414L8.6961 15.3419C7.92965 15.9951 6.90771 16.1961 5.93687 15.8444C4.96604 15.4926 4.35288 14.6385 4.30178 13.6336V13.4828C4.19959 12.2769 3.53533 11.2218 2.4623 10.6691L2.30901 10.5686C1.44036 10.0662 0.929398 9.16175 0.980495 8.15684C1.03159 7.15194 1.64475 6.29777 2.61559 5.94605L2.81998 5.8958C3.9441 5.4436 4.76165 4.48894 5.01714 3.3333L5.06823 3.18256C5.27262 2.17766 5.98797 1.47422 7.0099 1.223C7.21429 1.17275 7.46978 1.12251 7.67416 1.12251C8.44061 1.12251 9.15597 1.42398 9.66694 2.02692L9.76913 2.17766C10.5356 3.08207 11.7108 3.53428 12.9371 3.43379H13.0904C14.1123 3.3333 15.0321 3.7855 15.5942 4.63967C16.1051 5.39335 16.1051 6.39826 15.5942 7.30267Z" fill="#0047AB"/>
</svg>
