<svg width="14" height="10" viewBox="0 0 14 10" fill="none" xmlns="http://www.w3.org/2000/svg">
<path d="M1.05 0C0.844727 0 0.653623 0.0587321 0.492188 0.16183L6.48594 5.4855C6.80394 5.76777 7.18458 5.76775 7.50312 5.4855L13.5078 0.16183C13.3464 0.0587339 13.1553 0 12.95 0H1.05ZM0.0601562 0.725446C0.0237825 0.834379 0 0.949623 0 1.07143V8.92857C0 9.52214 0.468298 10 1.05 10H12.95C13.5317 10 14 9.52214 14 8.92857V1.07143C14 0.949623 13.9762 0.834377 13.9398 0.725446L7.9625 6.02122C7.40519 6.51504 6.58374 6.51581 6.02656 6.02122L0.0601562 0.725446Z" fill="white"/>
</svg>
