<svg width="131" height="132" viewBox="0 0 131 132" fill="none" xmlns="http://www.w3.org/2000/svg">
<g clip-path="url(#clip0_28_145)">
<path d="M109.471 102.913C109.209 95.5093 112.874 88.6337 118.633 84.4031L119.68 83.6097C128.057 77.5282 132.245 67.2153 130.675 56.9027C129.104 46.5901 121.775 38.1283 111.826 35.2196C104.236 32.8398 97.9527 26.758 95.5969 19.0896C92.4558 9.04135 84.079 1.90184 73.8696 0.315276C63.6602 -1.27128 53.451 3.22397 47.4301 11.6856L46.6448 12.7434C42.4564 18.8252 35.6502 22.2627 28.5823 22.2627H27.2734C16.8024 22.2627 7.37847 28.0801 2.92831 37.3351C-1.78364 46.8545 -0.736544 57.696 5.54606 66.1576L6.33139 67.2153C10.7816 73.033 11.8287 80.7013 9.73445 87.5762L9.21088 88.8984C5.80784 98.9463 8.4256 109.788 16.0171 116.927C23.3468 124.332 34.0796 126.711 44.027 123.274L45.3359 122.745C52.142 120.365 59.7336 121.423 65.4926 125.918L66.5397 126.711C71.2516 130.149 77.0107 132 82.5077 132C86.6961 132 91.1465 130.943 95.0729 128.827C104.235 124.067 109.995 114.548 109.733 103.971L109.471 102.913ZM92.4558 124.596C84.8642 128.562 76.2254 127.769 69.4192 122.745L68.3721 121.952C63.6602 118.514 57.9011 116.663 52.142 116.663C49.2625 116.663 46.1212 117.192 43.2417 118.25L41.9328 118.779C33.8178 121.687 25.441 119.572 19.4202 113.49C13.3994 107.408 11.3051 98.9463 13.9229 90.7493L14.4464 89.4271C17.326 80.9653 15.7553 71.4462 10.258 64.3066L9.47267 63.249C4.23719 56.3739 3.45186 47.6477 7.37847 39.9793C11.3051 32.311 18.373 27.8157 27.0116 27.8157C27.0116 27.8157 27.0116 27.8157 27.2734 27.8157H28.5823C28.5823 27.8157 28.5823 27.8157 28.844 27.8157C37.7444 27.8157 46.1212 23.3204 51.095 16.1809L51.8803 15.1232C56.854 7.98368 64.7072 4.54611 73.0843 5.86825C81.4611 7.19038 88.0054 12.7434 90.6232 20.9406C93.5023 30.4599 100.833 37.5995 110.256 40.5082C118.371 42.888 124.13 49.4987 125.439 57.9604C126.748 66.422 123.606 74.6192 116.539 79.6431L115.492 80.4366C108.162 85.7253 103.974 94.1871 104.235 103.178V104.5C104.497 112.962 100.047 120.63 92.4558 124.596Z" fill="white"/>
<path d="M50.1974 67.7798C49.7214 67.7798 49.3792 68.0047 49.171 68.4543C48.9628 68.8741 48.8586 69.3087 48.8586 69.7584C48.8586 70.4479 48.9479 71.1524 49.1264 71.8718C49.3346 72.5616 49.5429 73.2506 49.7511 73.9403C49.9892 74.5996 50.1974 75.2444 50.3759 75.8739C50.5544 76.5034 50.6437 77.1032 50.6437 77.6726C50.6437 78.5422 50.4205 79.2312 49.9743 79.7411C49.5577 80.2509 48.8586 80.5055 47.8768 80.5055H42.477C40.6325 80.5055 39.7102 79.3516 39.7102 77.043C39.7102 75.9638 39.8144 74.8846 40.0226 73.8054C40.2606 72.7262 40.5135 71.647 40.7812 70.5678C41.049 69.4586 41.287 68.3345 41.4953 67.1953C41.7333 66.0561 41.8523 64.872 41.8523 63.6429C41.8523 62.4137 41.7333 61.2746 41.4953 60.2254C41.287 59.1761 41.049 58.1569 40.7812 57.1676C40.5135 56.1783 40.2606 55.2041 40.0226 54.2448C39.8144 53.2555 39.7102 52.2212 39.7102 51.142C39.7102 50.2427 39.9929 49.4933 40.5581 48.8937C41.1531 48.2941 41.8672 47.7995 42.7002 47.4098C43.5332 47.0201 44.4257 46.7503 45.3778 46.6004C46.3298 46.4205 47.1628 46.3306 47.8768 46.3306C48.8586 46.3306 49.5577 46.6154 49.9743 47.1849C50.4205 47.7545 50.6437 48.6239 50.6437 49.793C50.6437 50.8722 50.5247 51.9814 50.2867 53.1206C50.0784 54.2297 49.8404 55.3539 49.5726 56.4931C49.3346 57.6323 49.0966 58.8014 48.8586 60.0005C48.6504 61.1996 48.5462 62.4137 48.5462 63.6429C48.5462 64.3324 48.695 64.827 48.9925 65.1268C49.29 65.4265 49.6619 65.5765 50.1081 65.5765C50.8817 65.5765 51.5659 65.3816 52.161 64.9919C52.7857 64.6022 53.3362 64.1076 53.8121 63.508C54.3179 62.9084 54.7493 62.2639 55.1063 61.5744C55.4633 60.8549 55.7608 60.1954 55.9988 59.5958C56.2369 58.9063 56.7129 58.3967 57.4269 58.067C58.1409 57.7372 59.1524 57.5723 60.4615 57.5723C61.949 57.5723 63.0498 57.8122 63.7638 58.2918C64.4778 58.7714 64.8349 59.401 64.8349 60.1804C64.8349 60.9898 64.5374 61.5894 63.9423 61.9791C63.3771 62.3688 62.6928 62.6686 61.8895 62.8784C61.116 63.0883 60.3276 63.2532 59.5243 63.3731C58.721 63.493 58.0963 63.7178 57.65 64.0476C57.1145 64.4373 56.9509 64.9769 57.1591 65.6664C57.3674 66.3259 57.7988 67.0754 58.4533 67.9147C59.1078 68.7541 59.8813 69.6385 60.7739 70.5678C61.6961 71.4971 62.5738 72.4265 63.4068 73.3557C64.2398 74.2551 64.939 75.1392 65.5042 76.0088C66.0993 76.8479 66.3968 77.5826 66.3968 78.2122C66.3968 79.7411 65.4745 80.5055 63.6299 80.5055H57.5608C56.579 80.5055 55.865 80.3256 55.4187 79.9659C54.9724 79.5764 54.7493 78.9919 54.7493 78.2122C54.7493 77.3426 54.66 76.3083 54.4815 75.1095C54.303 73.9106 54.0353 72.7712 53.6783 71.692C53.3212 70.6128 52.8453 69.6984 52.2502 68.949C51.685 68.1695 51.0007 67.7798 50.1974 67.7798ZM82.5537 63.418C82.5537 62.9684 82.5537 62.5337 82.5537 62.114C82.5537 61.6943 82.5091 61.3196 82.4198 60.9898C82.3306 60.6301 82.1816 60.3453 81.9735 60.1354C81.795 59.9256 81.4978 59.8207 81.081 59.8207C79.5342 59.8207 78.3739 60.66 77.6002 62.3388C76.8566 64.0176 76.4845 66.3259 76.4845 69.2638C76.4845 72.2016 76.8861 74.5097 77.6894 76.1887C78.4927 77.8372 79.8164 78.6619 81.6612 78.6619C82.7919 78.6619 83.714 78.482 84.428 78.1223C85.1715 77.7625 85.7517 77.3281 86.1684 76.8182C86.6147 76.2786 86.9422 75.7093 87.1502 75.1095C87.3885 74.4799 87.567 73.8954 87.6857 73.3557C87.775 73.0257 87.924 72.7864 88.132 72.6363C88.3702 72.4564 88.6078 72.3665 88.846 72.3665C89.1138 72.3665 89.352 72.4714 89.56 72.6812C89.768 72.8611 89.8724 73.1607 89.8724 73.5806C89.8724 74.2703 89.709 75.0493 89.3815 75.9189C89.0843 76.758 88.5782 77.5529 87.8642 78.3021C87.1502 79.0513 86.2282 79.6809 85.0974 80.1907C83.9666 80.7006 82.5832 80.9552 80.9471 80.9552C78.8648 80.9552 76.9905 80.6701 75.3242 80.1008C73.6579 79.5315 72.245 78.7366 71.0846 77.7176C69.9541 76.6681 69.0764 75.4242 68.4517 73.9853C67.8566 72.5463 67.5592 70.9725 67.5592 69.2638C67.5592 67.555 67.8566 65.9812 68.4517 64.5422C69.0764 63.1033 69.9541 61.8741 71.0846 60.8549C72.245 59.8057 73.6579 58.9963 75.3242 58.4267C76.9905 57.8571 78.8648 57.5723 80.9471 57.5723C82.3154 57.5723 83.5506 57.7222 84.6511 58.022C85.7819 58.3217 86.7486 58.7565 87.5518 59.326C88.3551 59.8656 88.9799 60.5251 89.4261 61.3046C89.8724 62.084 90.0955 62.9534 90.0955 63.9127C90.0955 64.6921 89.9768 65.3217 89.7385 65.8013C89.5305 66.2809 89.2476 66.6557 88.8906 66.9255C88.5336 67.1953 88.132 67.3751 87.6857 67.4651C87.269 67.555 86.8378 67.6 86.3916 67.6C85.1715 67.6 84.22 67.2852 83.5355 66.6557C82.8812 66.0261 82.5537 64.9469 82.5537 63.418Z" fill="white"/>
</g>
<defs>
<clipPath id="clip0_28_145">
<rect width="131" height="132" fill="white"/>
</clipPath>
</defs>
</svg>
