<svg width="112" height="112" viewBox="0 0 112 112" fill="none" xmlns="http://www.w3.org/2000/svg">
<g clip-path="url(#clip0_28_48)">
<path d="M93.5932 87.32C93.3699 81.0382 96.5028 75.2043 101.426 71.6148L102.322 70.9415C109.484 65.7815 113.065 57.0312 111.722 48.2811C110.379 39.531 104.113 32.3513 95.6074 29.8833C89.1175 27.8641 83.7458 22.7038 81.7317 16.1972C79.0462 7.67145 71.8843 1.61368 63.1557 0.267507C54.427 -1.07867 45.6985 2.73549 40.551 9.91508L39.8795 10.8126C36.2986 15.9729 30.4796 18.8896 24.4367 18.8896H23.3177C14.3654 18.8896 6.30831 23.8255 2.50359 31.6783C-1.52495 39.7553 -0.629717 48.9542 4.74167 56.1337L5.4131 57.0312C9.21785 61.9674 10.113 68.4738 8.32259 74.3071L7.87495 75.4289C4.96548 83.9545 7.20357 93.1539 13.694 99.2111C19.9606 105.494 29.1367 107.513 37.6414 104.596L38.7605 104.147C44.5794 102.128 51.0699 103.025 55.9937 106.839L56.8889 107.513C60.9174 110.43 65.8412 112 70.5409 112C74.1218 112 77.9268 111.103 81.2837 109.308C89.1169 105.269 94.0412 97.192 93.8172 88.2178L93.5932 87.32ZM79.0462 105.718C72.5557 109.083 65.1698 108.41 59.3508 104.147L58.4556 103.474C54.427 100.558 49.5033 98.9871 44.5794 98.9871C42.1176 98.9871 39.4319 99.4357 36.97 100.333L35.851 100.782C28.9129 103.25 21.7511 101.455 16.6035 96.2948C11.4559 91.1342 9.66542 83.9545 11.9035 76.9994L12.3511 75.8775C14.813 68.6979 13.4702 60.621 8.77022 54.5632L8.09877 53.6658C3.62263 47.8324 2.95121 40.4284 6.30831 33.9218C9.66542 27.4154 15.7082 23.6012 23.0939 23.6012C23.0939 23.6012 23.0939 23.6012 23.3177 23.6012H24.4367C24.4367 23.6012 24.4367 23.6012 24.6606 23.6012C32.27 23.6012 39.4319 19.787 43.6842 13.7292L44.3557 12.8318C48.608 6.77403 55.3222 3.8573 62.4843 4.97912C69.6462 6.10093 75.2412 10.8126 77.4794 17.7678C79.9409 25.8448 86.208 31.9026 94.2646 34.3706C101.203 36.3898 106.127 41.9989 107.246 49.1785C108.365 56.3581 105.679 63.3132 99.6363 67.576L98.7409 68.2492C92.4745 72.7366 88.8935 79.9163 89.1169 87.5446V88.6665C89.3409 95.8462 85.536 102.353 79.0462 105.718Z" fill="#0047AB"/>
<path d="M42.9168 57.5101C42.5099 57.5101 42.2173 57.7009 42.0393 58.0825C41.8613 58.4386 41.7722 58.8074 41.7722 59.1889C41.7722 59.774 41.8485 60.3717 42.0011 60.9821C42.1792 61.5674 42.3573 62.152 42.5353 62.7372C42.7388 63.2966 42.9168 63.8437 43.0695 64.3778C43.2221 64.912 43.2984 65.4209 43.2984 65.904C43.2984 66.6418 43.1076 67.2264 42.7261 67.6591C42.3699 68.0917 41.7722 68.3077 40.9328 68.3077H36.3162C34.7392 68.3077 33.9507 67.3286 33.9507 65.3698C33.9507 64.4541 34.0397 63.5385 34.2178 62.6228C34.4213 61.7071 34.6375 60.7914 34.8664 59.8757C35.0953 58.9346 35.2988 57.9807 35.4768 57.0141C35.6803 56.0476 35.7821 55.0429 35.7821 54C35.7821 52.9571 35.6803 51.9906 35.4768 51.1003C35.2988 50.21 35.0953 49.3452 34.8664 48.5058C34.6375 47.6665 34.4213 46.8398 34.2178 46.0258C34.0397 45.1865 33.9507 44.3089 33.9507 43.3932C33.9507 42.6301 34.1923 41.9943 34.6756 41.4855C35.1843 40.9768 35.7948 40.5571 36.507 40.2264C37.2192 39.8958 37.9823 39.6669 38.7962 39.5397C39.6102 39.3871 40.3224 39.3108 40.9328 39.3108C41.7722 39.3108 42.3699 39.5524 42.7261 40.0357C43.1076 40.5189 43.2984 41.2566 43.2984 42.2486C43.2984 43.1643 43.1967 44.1054 42.9931 45.072C42.8151 46.0131 42.6116 46.9669 42.3827 47.9335C42.1792 48.9001 41.9757 49.8921 41.7722 50.9095C41.5942 51.9269 41.5051 52.9571 41.5051 54C41.5051 54.585 41.6323 55.0047 41.8867 55.2591C42.141 55.5134 42.459 55.6406 42.8405 55.6406C43.5019 55.6406 44.0869 55.4753 44.5956 55.1446C45.1298 54.814 45.6003 54.3943 46.0073 53.8855C46.4397 53.3768 46.8085 52.83 47.1138 52.2449C47.419 51.6345 47.6733 51.0749 47.8768 50.5661C48.0803 49.9811 48.4873 49.5487 49.0978 49.2689C49.7082 48.9891 50.573 48.8492 51.6922 48.8492C52.964 48.8492 53.9051 49.0527 54.5156 49.4597C55.1261 49.8666 55.4313 50.4008 55.4313 51.0621C55.4313 51.7489 55.177 52.2577 54.6682 52.5883C54.185 52.9189 53.5999 53.1733 52.9131 53.3514C52.2518 53.5294 51.5778 53.6693 50.891 53.7711C50.2042 53.8728 49.6701 54.0636 49.2885 54.3434C48.8307 54.674 48.6908 55.1319 48.8688 55.7169C49.0469 56.2765 49.4157 56.9124 49.9753 57.6246C50.5349 58.3368 51.1962 59.0872 51.9593 59.8757C52.7478 60.6642 53.4982 61.4527 54.2104 62.2412C54.9226 63.0043 55.5203 63.7545 56.0036 64.4923C56.5123 65.2043 56.7667 65.8277 56.7667 66.3618C56.7667 67.6591 55.9782 68.3077 54.4011 68.3077H49.2122C48.3728 68.3077 47.7624 68.1551 47.3808 67.8498C46.9993 67.5194 46.8085 67.0234 46.8085 66.3618C46.8085 65.624 46.7322 64.7464 46.5796 63.7292C46.427 62.712 46.1981 61.7452 45.8928 60.8295C45.5876 59.9138 45.1807 59.138 44.6719 58.5021C44.1887 57.8408 43.6036 57.5101 42.9168 57.5101ZM70.5802 53.8092C70.5802 53.4277 70.5802 53.0589 70.5802 52.7028C70.5802 52.3466 70.5421 52.0287 70.4658 51.7489C70.3895 51.4437 70.2621 51.202 70.0842 51.024C69.9316 50.846 69.6775 50.7569 69.3211 50.7569C67.9987 50.7569 67.0067 51.4691 66.3451 52.8935C65.7094 54.318 65.3913 56.2765 65.3913 58.7692C65.3913 61.262 65.7347 63.2203 66.4215 64.6449C67.1082 66.0437 68.2399 66.7434 69.8171 66.7434C70.7839 66.7434 71.5722 66.5908 72.1827 66.2855C72.8184 65.9803 73.3144 65.6117 73.6707 65.1791C74.0522 64.7212 74.3322 64.2381 74.5101 63.7292C74.7138 63.1951 74.8664 62.6991 74.9679 62.2412C75.0442 61.9612 75.1716 61.7581 75.3495 61.6308C75.5531 61.4781 75.7562 61.4018 75.9599 61.4018C76.1888 61.4018 76.3925 61.4909 76.5704 61.6689C76.7482 61.8215 76.8375 62.0757 76.8375 62.432C76.8375 63.0172 76.6978 63.6781 76.4178 64.416C76.1636 65.128 75.731 65.8025 75.1205 66.4381C74.5101 67.0738 73.7218 67.608 72.755 68.0406C71.7882 68.4732 70.6054 68.6892 69.2067 68.6892C67.4264 68.6892 65.8239 68.4474 64.3993 67.9643C62.9747 67.4812 61.7667 66.8068 60.7746 65.9421C59.808 65.0517 59.0577 63.9963 58.5235 62.7754C58.0148 61.5545 57.7605 60.2191 57.7605 58.7692C57.7605 57.3194 58.0148 55.984 58.5235 54.7631C59.0577 53.5421 59.808 52.4993 60.7746 51.6344C61.7667 50.7442 62.9747 50.0574 64.3993 49.5741C65.8239 49.0909 67.4264 48.8492 69.2067 48.8492C70.3765 48.8492 71.4325 48.9764 72.3735 49.2308C73.3402 49.4851 74.1667 49.854 74.8535 50.3372C75.5402 50.7951 76.0744 51.3546 76.4559 52.016C76.8374 52.6773 77.0282 53.4149 77.0282 54.2289C77.0282 54.8903 76.9267 55.4244 76.723 55.8314C76.5451 56.2383 76.3033 56.5563 75.9981 56.7852C75.6928 57.0141 75.3494 57.1668 74.9679 57.2431C74.6116 57.3194 74.243 57.3575 73.8615 57.3575C72.8184 57.3575 72.0048 57.0905 71.4196 56.5563C70.8602 56.0221 70.5802 55.1065 70.5802 53.8092Z" fill="#0047AB"/>
</g>
<defs>
<clipPath id="clip0_28_48">
<rect width="112" height="112" fill="white"/>
</clipPath>
</defs>
</svg>
