<svg width="10" height="10" viewBox="0 0 10 10" fill="none" xmlns="http://www.w3.org/2000/svg">
<path d="M8.80952 0H1.19048C0.533333 0 0 0.533333 0 1.19048V8.80952C0 9.46667 0.533333 10 1.19048 10H8.80952C9.46667 10 10 9.46667 10 8.80952V1.19048C10 0.533333 9.46667 0 8.80952 0ZM3.09524 3.80952V8.33333H1.66667V3.80952H3.09524ZM1.66667 2.49286C1.66667 2.15952 1.95238 1.90476 2.38095 1.90476C2.80952 1.90476 3.07857 2.15952 3.09524 2.49286C3.09524 2.82619 2.82857 3.09524 2.38095 3.09524C1.95238 3.09524 1.66667 2.82619 1.66667 2.49286ZM8.33333 8.33333H6.90476C6.90476 8.33333 6.90476 6.12857 6.90476 5.95238C6.90476 5.47619 6.66667 5 6.07143 4.99048H6.05238C5.47619 4.99048 5.2381 5.48095 5.2381 5.95238C5.2381 6.16905 5.2381 8.33333 5.2381 8.33333H3.80952V3.80952H5.2381V4.41905C5.2381 4.41905 5.69762 3.80952 6.62143 3.80952C7.56667 3.80952 8.33333 4.45952 8.33333 5.77619V8.33333Z" fill="white"/>
</svg>
